<?xml version="1.0" standalone="no"?>
<!DOCTYPE svg PUBLIC "-//W3C//DTD SVG 20010904//EN"
 "http://www.w3.org/TR/2001/REC-SVG-20010904/DTD/svg10.dtd">
<svg version="1.0" xmlns="http://www.w3.org/2000/svg"
 width="1000.000000pt" height="644.000000pt" viewBox="0 0 1000.000000 644.000000"
 preserveAspectRatio="xMidYMid meet">

<g transform="translate(0.000000,644.000000) scale(0.100000,-0.100000)"
fill="#000000" stroke="none">
<path d="M4150 5819 c-232 -47 -452 -313 -683 -829 -126 -282 -152 -358 -213
-626 l-57 -252 -29 10 c-16 6 -30 9 -32 7 -1 -2 -44 -121 -95 -264 -171 -480
-306 -795 -398 -931 -142 -209 -283 -213 -338 -9 -34 126 -18 424 40 742 23
126 105 476 120 514 5 13 -12 17 -116 28 -68 6 -126 8 -130 4 -4 -5 -30 -118
-58 -253 -91 -448 -133 -777 -133 -1045 -1 -370 84 -550 285 -602 42 -11 61
-10 121 2 220 46 394 219 573 570 101 199 189 428 349 915 172 524 229 691
296 860 184 464 377 694 593 708 55 3 79 0 106 -13 58 -30 97 -65 145 -128
138 -184 242 -425 481 -1112 305 -877 435 -1193 598 -1444 66 -103 233 -269
310 -309 180 -93 392 -46 559 123 l56 57 0 292 0 291 -41 -75 c-137 -251 -288
-337 -453 -256 -58 28 -186 138 -186 160 0 6 22 73 50 148 60 165 129 392 204
672 31 114 56 209 56 212 0 2 -29 4 -64 4 -53 0 -66 -3 -70 -17 -3 -10 -34
-167 -70 -350 -85 -431 -127 -623 -136 -623 -13 0 -103 146 -173 280 -104 199
-183 397 -389 975 -242 680 -382 1005 -530 1230 -61 93 -181 222 -246 265 -92
61 -211 88 -302 69z"/>
<path d="M7309 4570 c-14 -4 -41 -15 -60 -24 -68 -32 -168 -237 -128 -262 5
-3 7 -10 3 -15 -3 -5 -1 -15 4 -22 5 -7 10 -20 11 -29 0 -10 2 -26 2 -35 1
-10 6 -23 11 -30 5 -7 7 -17 3 -23 -4 -6 -1 -18 6 -26 19 -23 8 -24 -51 -9
-102 27 -91 40 -163 -182 -36 -109 -88 -281 -117 -383 -136 -486 -202 -712
-230 -795 -39 -118 -16 -90 79 95 86 167 140 297 276 658 145 387 218 553 229
522 3 -8 30 -143 61 -300 31 -157 74 -361 96 -454 147 -638 321 -934 553 -939
130 -4 199 35 246 136 85 183 63 488 -75 1055 -30 123 -57 227 -59 231 -5 8
-182 -11 -191 -21 -3 -3 6 -41 20 -84 129 -390 186 -849 109 -878 -24 -9 -79
19 -107 56 -40 52 -92 163 -127 273 -29 92 -112 413 -141 548 -11 53 -14 57
-40 57 -28 0 -47 28 -34 50 4 6 2 16 -3 23 -6 7 -10 23 -10 37 0 14 -3 41 -6
60 -4 19 -9 46 -11 60 -2 14 -6 39 -9 55 -2 17 -14 81 -25 144 -13 72 -17 118
-12 125 9 11 -63 312 -78 327 -3 4 -18 3 -32 -1z m218 -1042 c-3 -8 -6 -5 -6
6 -1 11 2 17 5 13 3 -3 4 -12 1 -19z m10 -60 c-3 -8 -6 -5 -6 6 -1 11 2 17 5
13 3 -3 4 -12 1 -19z"/>
<path d="M9550 1970 c0 -5 16 -10 35 -10 l35 0 0 -105 c0 -63 4 -105 10 -105
6 0 10 42 10 105 l0 105 35 0 c19 0 35 5 35 10 0 6 -33 10 -80 10 -47 0 -80
-4 -80 -10z"/>
<path d="M9750 1865 c0 -70 4 -115 10 -115 6 0 10 39 10 98 l0 97 36 -65 c20
-36 38 -66 39 -68 2 -2 19 25 39 60 l36 63 0 -93 c0 -70 3 -93 13 -90 8 3 13
38 15 117 2 102 1 112 -14 109 -10 -2 -31 -29 -48 -60 -17 -32 -33 -58 -36
-58 -3 0 -20 27 -38 60 -51 92 -62 82 -62 -55z"/>
<path d="M5891 1869 c-441 -57 -740 -505 -691 -1034 25 -256 113 -461 264
-610 156 -155 338 -224 560 -212 150 7 264 45 392 129 55 37 106 73 112 81 10
11 4 23 -28 60 l-41 46 -62 -50 c-34 -28 -102 -70 -152 -95 -116 -58 -198 -72
-334 -55 -384 45 -631 461 -571 961 54 447 405 735 780 641 107 -26 210 -77
276 -135 l50 -44 42 48 c23 27 42 51 42 54 0 3 -26 25 -59 50 -116 89 -248
141 -426 165 -42 6 -79 10 -83 10 -4 -1 -36 -5 -71 -10z"/>
<path d="M475 1854 c-224 -49 -381 -200 -404 -389 -22 -185 42 -336 181 -427
71 -47 222 -115 392 -177 210 -76 319 -147 357 -233 35 -79 33 -202 -3 -280
-35 -75 -106 -150 -168 -177 -138 -59 -319 -67 -439 -18 -80 32 -211 111 -268
161 -24 21 -48 35 -52 30 -4 -5 -22 -28 -40 -52 -40 -51 -41 -49 75 -133 95
-68 178 -108 279 -135 95 -24 304 -25 394 -1 266 72 419 327 355 597 -18 78
-59 145 -127 206 -65 58 -133 92 -294 148 -294 101 -438 192 -497 312 -25 51
-28 65 -24 138 4 98 30 159 99 228 38 38 61 51 128 72 97 31 241 35 334 11 66
-17 168 -67 246 -119 30 -20 57 -33 61 -29 3 4 19 25 34 46 l28 38 -23 26
c-42 45 -154 111 -235 139 -101 34 -280 42 -389 18z"/>
<path d="M9167 1853 c-6 -10 -707 -1814 -707 -1819 0 -2 29 -4 64 -4 l63 0 83
218 c46 119 89 232 96 250 l13 32 448 0 448 0 95 -248 95 -247 69 -3 c37 -2
66 1 64 5 -3 4 -162 416 -354 915 l-349 908 -62 0 c-34 0 -64 -3 -66 -7z m260
-691 l192 -497 -386 -3 c-212 -1 -388 0 -391 3 -3 3 79 222 181 487 102 266
189 491 193 501 3 10 9 15 13 12 3 -4 92 -230 198 -503z"/>
<path d="M1800 936 l0 -916 60 0 60 0 0 349 0 349 288 4 c266 4 292 6 357 27
195 64 306 174 361 356 22 74 25 264 5 345 -36 147 -126 262 -253 324 -136 66
-156 69 -535 74 l-343 4 0 -916z m732 766 c131 -44 225 -131 265 -246 25 -70
24 -280 -1 -346 -44 -118 -142 -208 -275 -252 -59 -19 -93 -22 -333 -26 l-268
-4 0 452 0 451 273 -3 c248 -4 278 -6 339 -26z"/>
<path d="M3550 935 l0 -915 550 0 550 0 0 65 0 65 -485 0 -485 0 0 370 0 370
430 0 430 0 0 60 0 60 -430 0 -430 0 0 355 0 355 485 0 485 0 0 65 0 65 -550
0 -550 0 0 -915z"/>
<path d="M7000 1785 l0 -65 260 0 260 0 2 -847 3 -848 65 0 65 0 3 848 2 847
265 0 265 0 0 65 0 65 -595 0 -595 0 0 -65z"/>
</g>
</svg>
